HIERARCHY
ROOT Hips
{
	OFFSET 0.000000 0.000000 0.000000
	CHANNELS 6 Xposition Yposition Zposition Zrotation Yrotation Xrotation 
		JOINT LeftUpLeg
		{
			OFFSET 1.363060 -1.794630 0.839290
			CHANNELS 3 Zrotation Yrotation Xrotation
			JOINT LeftLeg
			{
				OFFSET 2.448110 -6.726130 0.000000
				CHANNELS 3 Zrotation Yrotation Xrotation
				JOINT LeftFoot
				{
					OFFSET 2.562200 -7.039590 0.000000
					CHANNELS 3 Zrotation Yrotation Xrotation
					JOINT LeftToeBase
					{
						OFFSET 0.157640 -0.433110 2.322550
						CHANNELS 3 Zrotation Yrotation Xrotation
						End Site
						{
							OFFSET 0.000000 0.000000 0.000000
						}
					}
				}
			}
		}
		JOINT RightUpLeg
		{
			OFFSET -1.305520 -1.794630 0.839290
			CHANNELS 3 Zrotation Yrotation Xrotation
			JOINT RightLeg
			{
				OFFSET -2.542530 -6.985550 0.000000
				CHANNELS 3 Zrotation Yrotation Xrotation
				JOINT RightFoot
				{
					OFFSET -2.568260 -7.056230 0.000000
					CHANNELS 3 Zrotation Yrotation Xrotation
					JOINT RightToeBase
					{
						OFFSET -0.164730 -0.452590 2.363150
						CHANNELS 3 Zrotation Yrotation Xrotation
						End Site
						{
							OFFSET 0.000000 0.000000 0.000000
						}
					}
				}
			}
		}
		JOINT Spine
		{
			OFFSET -0.000000 1.017795 0.000000
			CHANNELS 3 Zrotation Yrotation Xrotation
			JOINT Spine1
			{
				OFFSET 0.056720 2.048850 -0.042750
				CHANNELS 3 Zrotation Yrotation Xrotation
            JOINT Spine2
            {
                OFFSET -0.000000 1.017795 0.000000
                CHANNELS 3 Zrotation Yrotation Xrotation
					JOINT Neck1
					{
						OFFSET -0.054170 1.746240 0.172020
						CHANNELS 3 Zrotation Yrotation Xrotation
						JOINT Head
						{
							OFFSET 0.104070 1.761360 -0.123970
							CHANNELS 3 Zrotation Yrotation Xrotation
							End Site
							{
								OFFSET 0.000000 0.000000 0.000000
							}
						}
					}
				JOINT LeftShoulder
				{
					OFFSET 0.000000 0.000000 0.000000
					CHANNELS 3 Zrotation Yrotation Xrotation
					JOINT LeftArm
					{
						OFFSET 3.362410 1.200890 -0.311210
						CHANNELS 3 Zrotation Yrotation Xrotation
						JOINT LeftForeArm
						{
							OFFSET 4.983000 -0.000000 -0.000000
							CHANNELS 3 Zrotation Yrotation Xrotation
							JOINT LeftHand
							{
								OFFSET 3.483560 -0.000000 -0.000000
								CHANNELS 3 Zrotation Yrotation Xrotation
									End Site
									{
										OFFSET 0.000000 0.000000 0.000000
									}
							}
						}
					}
				}
				JOINT RightShoulder
				{
					OFFSET 0.000000 0.000000 0.000000
					CHANNELS 3 Zrotation Yrotation Xrotation
					JOINT RightArm
					{
						OFFSET -3.136600 1.374050 -0.404650
						CHANNELS 3 Zrotation Yrotation Xrotation
						JOINT RightForeArm
						{
							OFFSET -5.241900 -0.000000 -0.000000
							CHANNELS 3 Zrotation Yrotation Xrotation
							JOINT RightHand
							{
								OFFSET -3.444170 -0.000000 -0.000000
								CHANNELS 3 Zrotation Yrotation Xrotation
									End Site
									{
										OFFSET 0.000000 0.000000 0.000000
									}
							}
						}
					}
				}
			}
            }
		}
}
MOTION
Frames: 6
Frame Time: 0.008333
-12.672203    17.751559    -0.997483    -126.895207    89.463968    -99.093603    -19.298263    8.081282999999999    -13.502341    -1.237808    0.490361    15.371713    0.447090    1.350999    15.348787    0.483300    0.000001    -65.021300    19.703139999999998    10.474533    -43.646612999999995    1.847329    -2.088860    35.633921    -1.006508    -2.169053    -8.267176    -0.278100    0.000001    -34.965799    0.000000    0.000000    0.000000    4.595313    -7.584067    -6.799899    -4.636651    -3.950642    -0.967129    4.235741    -15.041928    -7.804926999999999    0.000000    0.000000    0.000000    6.364340    5.519602    -0.813952    -77.664938    -4.681923    26.824472    -178.508317    -66.546103    179.957778    5.596629    -6.400787    -0.361509    4.312137    -10.792310    -0.762979    70.560082    -22.047999    25.968463    179.821397    74.097018    179.979853    -0.354592    11.591603    -0.026490
-12.443808    17.805293    -0.990661    -128.262045    89.400650    -100.397543    -18.917912    7.996535    -13.103237    -1.118082    0.549548    15.660193    0.513835    1.495781    16.463828    0.517200    0.000001    -64.122000    19.826880000000003    10.714581    -42.713547    2.167869    -1.712885    31.528079    -0.885619    -1.864865    -7.087498    -0.382300    0.000000    -35.741200    0.000000    0.000000    0.000000    4.911865    -7.5515620000000006    -6.916065    -4.579856    -3.945982    -0.984938    4.114207    -15.032117000000001    -7.795216    0.000000    0.000000    0.000000    6.498177    5.484273    -0.814158    -77.928194    -4.155655    27.149983    -178.510363    -66.171933    179.961417    5.154572    -6.269910    -0.326286    4.018917    -10.727347    -0.776447    70.879212    -22.423066    25.645302    179.824917    73.772769    179.979564    -0.268340    11.628973    -0.016917
-12.216726    17.847079    -0.981786    -133.028524    89.441220    -105.117624    -18.652331    7.713747    -12.749702999999998    -1.000313    0.610494    16.270367    0.599755    1.965788    17.039286    0.674800    -0.000000    -63.133100    19.878219    10.897377    -41.843156    2.431153    -1.339381    27.776695    -0.785233    -1.729890    -5.833323    -0.495900    0.000000    -36.430400    0.000000    0.000000    0.000000    5.077343    -7.514058    -7.014615    -4.539270    -3.932860    -1.006430    4.0182839999999995    -15.005877    -7.787795    0.000000    0.000000    0.000000    6.623091    5.437753    -0.813724    -78.151319    -3.594793    27.472000    -178.525914    -65.834652    179.964122    4.807701    -6.172270    -0.299450    3.803116    -10.644142    -0.784172    71.233928    -22.715802    25.307236    179.826017    73.507052    179.979413    -0.178018    11.674727    -0.006935
-11.991671    17.877180    -0.971358    -140.436431    89.572994    -112.518300    -18.485814    7.313363    -12.454678999999999    -0.891557    0.679221    17.224046    0.698283    2.682789    17.105416    0.925700    -0.000000    -61.791700    19.900532000000002    11.018277000000001    -41.056535999999994    2.631945    -0.992530    24.497116    -0.705904    -1.742550    -4.543161    -0.621400    0.000001    -37.038200    0.000000    0.000000    0.000000    5.112043    -7.4563749999999995    -7.063806    -4.518202    -3.902956    -1.030295    3.951272    -14.962408    -7.784347    0.000000    0.000000    0.000000    6.731518    5.399116    -0.810453    -78.331962    -3.027876    27.796370    -178.552581    -65.552500    179.966027    4.543940    -6.098204    -0.279406    3.668673    -10.539423    -0.786307    71.620671    -22.909019    24.955439    179.824672    73.305038    179.979401    -0.091015    11.714621    0.002755
-11.768658    17.895711    -0.959621    -151.644963    89.811213    -123.766155    -18.412771    6.863250000000001    -12.220219    -0.801855    0.763748    18.489126    0.810129    3.591937    16.767064    1.237900    -0.000000    -60.534300    19.940023    11.072941    -40.384273    2.771205    -0.692371    21.796497    -0.642605    -1.851185    -3.271906    -0.754800    0.000000    -37.531300    0.000000    0.000000    0.000000    5.027002    -7.352751    -7.053174    -4.516513    -3.842669    -1.055791    3.911409    -14.907713    -7.786124    0.000000    0.000000    0.000000    6.815514    5.377067    -0.806179    -78.466462    -2.452097    28.114374    -178.594288    -65.323342    179.966799    4.395241    -6.056729    -0.268141    3.602496    -10.414588    -0.781440    72.036464    -22.982987    24.610489    179.820145    73.178346    179.979534    -0.010876    11.759640    0.011757
-11.548035    17.902793    -0.946919    12.277532    89.835848    40.059702    -18.351282    6.46627    -12.061833    -0.747770    0.875263    20.052941    0.931773    4.593829    16.107133    1.559400    -0.000000    -59.316300    20.102053    11.10949    -39.814795000000004    2.855247    -0.453709    19.724372    -0.593086    -2.019009    -2.067622    -0.890001    -0.000000    -37.892200    0.000000    0.000000    0.000000    4.906451000000001    -7.1533809999999995    -6.964209    -4.536886    -3.728547    -1.083055    3.896041    -14.845595    -7.794611000000001    0.000000    0.000000    0.000000    6.874304    5.392274    -0.799480    -78.563918    -1.875107    28.420179    -178.651764    -65.151599    179.966577    4.345951    -6.037669    -0.263959    3.589876    -10.262319    -0.769442    72.478301    -22.924681    24.285695    179.811667    73.130716    179.979845    0.062718    11.805771    0.019968
